<?xml version="1.0" standalone="no"?>
<!DOCTYPE svg PUBLIC "-//W3C//DTD SVG 1.1//EN" "http://www.w3.org/Graphics/SVG/1.1/DTD/svg11.dtd" >
<svg xmlns="http://www.w3.org/2000/svg">
<metadata>
<json>
<![CDATA[
{
	"fontFamily": "icon-set",
	"description": "Font generated by IcoMoon.",
	"majorVersion": 1,
	"minorVersion": 0,
	"version": "Version 1.0",
	"fontId": "icon-set",
	"psName": "icon-set",
	"subFamily": "Regular",
	"fullName": "icon-set"
}
]]>
</json>
</metadata>
<defs>
<font id="icon-set" horiz-adv-x="1024">
<font-face units-per-em="1024" ascent="877.7142857142858" descent="-146.28571428571428" />
<missing-glyph horiz-adv-x="1024" />
<glyph unicode="&#x20;" horiz-adv-x="256" d="" />
<glyph unicode="&#xe900;" glyph-name="search" data-tags="search" d="M995.828-99.826c-37.566-37.564-98.45-37.564-136.016 0l-169.726 169.726c-69.776-44.764-152.26-71.434-241.318-71.434-247.83 0-448.768 200.908-448.768 448.768s200.938 448.766 448.768 448.766c247.862 0 448.768-200.904 448.768-448.766 0-89.028-26.704-171.542-71.436-241.352l169.728-169.726c37.562-37.564 37.562-98.418 0-135.982zM448.768 767.782c-177.022 0-320.548-143.494-320.548-320.546s143.526-320.548 320.548-320.548c177.052 0 320.548 143.496 320.548 320.548s-143.496 320.546-320.548 320.546z" />
<glyph unicode="&#xe901;" glyph-name="arow-right" data-tags="arow-right" horiz-adv-x="531" d="M508.587 422.603l-474.074-542.341 211.247 542.341-279.514 474.453 542.341-474.453z" />
<glyph unicode="&#xe902;" glyph-name="arow-left" data-tags="arow-left" horiz-adv-x="569" d="M0 346.751l474.074 542.72-211.247-542.72 279.514-474.074-542.341 474.074z" />
<glyph unicode="&#xe903;" glyph-name="heart" data-tags="heart" d="M859.008 669.141c37.547-37.589 56.277-86.656 56.277-135.851s-18.773-98.261-56.277-135.765l-347.008-347.008-347.008 347.008c-37.504 37.504-56.235 86.571-56.235 135.808s18.731 98.304 56.235 135.808 86.571 56.235 135.808 56.235 98.304-18.731 135.808-56.235l45.227-45.227c16.683-16.683 43.691-16.683 60.331 0l45.312 45.312c37.504 37.504 86.571 56.235 135.765 56.192s98.261-18.773 135.765-56.277zM919.339 729.472c-54.144 54.144-125.184 81.237-196.096 81.28s-141.952-27.051-196.139-81.195l-15.104-15.147-15.061 15.061c-54.144 54.144-125.227 81.237-196.139 81.237s-141.995-27.093-196.139-81.237-81.237-125.227-81.237-196.139 27.093-141.995 81.237-196.139l377.173-377.173c16.683-16.683 43.691-16.683 60.331 0l377.173 377.173c54.144 54.144 81.237 125.184 81.28 196.096s-27.051 141.952-81.28 196.181z" />
<glyph unicode="&#xe904;" glyph-name="shopping-cart" data-tags="shopping-cart" d="M885.589 667.947c-8.149 9.344-19.883 14.72-32.256 14.72h-589.611l-8.32 49.664c-3.413 20.565-21.205 35.669-42.069 35.669h-96c-23.595 0-42.667-19.072-42.667-42.667s19.072-42.667 42.667-42.667h59.861l79.36-476.331c0.341-1.92 1.323-3.499 1.92-5.291 0.683-2.261 1.237-4.395 2.304-6.443 1.365-2.816 3.2-5.205 5.12-7.637 1.323-1.664 2.517-3.328 4.053-4.779 2.475-2.304 5.333-3.925 8.235-5.547 1.621-0.896 3.029-2.091 4.779-2.773 4.949-2.005 10.155-3.2 15.659-3.2 0.043 0 469.376 0 469.376 0 23.595 0 42.667 19.072 42.667 42.667s-19.072 42.667-42.667 42.667h-433.195l-7.083 42.667h482.944c21.248 0 39.253 15.616 42.24 36.608l42.667 298.667c1.749 12.288-1.92 24.704-9.984 34.005zM804.139 597.333l-12.16-85.333h-151.979v85.333h164.139zM597.333 597.333v-85.333h-128v85.333h128zM597.333 469.333v-85.333h-128v85.333h128zM426.667 597.333v-85.333h-128c-2.261 0-4.309-0.64-6.315-1.28l-14.421 86.613h148.736zM299.264 469.333h127.403v-85.333h-113.195l-14.208 85.333zM640 384v85.333h145.835l-12.16-85.333h-133.675zM426.667 64c0-35.346-28.654-64-64-64s-64 28.654-64 64c0 35.346 28.654 64 64 64s64-28.654 64-64zM810.667 64c0-35.346-28.654-64-64-64s-64 28.654-64 64c0 35.346 28.654 64 64 64s64-28.654 64-64z" />
<glyph unicode="&#xe905;" glyph-name="mobile-profile" data-tags="mobile-profile" d="M488.029 877.242c-37.291-4.321-67.711-12.258-96.31-25.129-91.1-40.996-154.37-123.521-171.638-223.875-3.861-22.451-3.31-77.114 1.001-98.995 8.325-42.247 26.46-84.972 50.153-118.151 15.081-21.118 41.539-48.77 60.221-62.939l13.219-10.026-5.735-2.183c-67.291-25.609-123.060-59.411-170.749-103.494-102.074-94.366-159.128-215.338-166.8-353.666v0c-0.755-13.615 10.081-25.069 23.717-25.069h45.726c5.334 0 9.658 4.324 9.658 9.658v0c0 27.373 7.538 77.265 16.229 107.422 22.734 78.876 67.977 151.012 128.715 205.238 89.894 80.249 208.99 119.445 327.667 107.841 54.305-5.311 100.724-18.804 151.678-44.088 106.747-52.973 188.835-152.213 222.497-268.991 8.69-30.157 16.23-80.049 16.23-107.422v0c0-5.334 4.324-9.658 9.658-9.658h45.726c13.633 0 24.474 11.455 23.715 25.069v0c-6.805 122.689-53.439 233.937-134.973 321.969-56.902 61.44-120.776 104.066-202.575 135.191l-5.734 2.183 13.219 10.026c55.194 41.858 96.191 109.13 110.373 181.090 4.31 21.881 4.864 76.544 1.001 98.995-21.727 126.265-116.601 222.847-240.975 245.316-16.165 2.92-62.054 5.18-74.915 3.688zM545.792 795.28c117.602-19.107 197.846-129.866 178.897-246.929-19.074-117.816-129.634-198.202-246.481-179.221-117.603 19.107-197.846 129.867-178.896 246.931 19.072 117.814 129.634 198.204 246.48 179.219z" />
<glyph unicode="&#xe906;" glyph-name="mobile-catalog" data-tags="mobile-catalog" horiz-adv-x="1401" d="M485.029 191.085h-431.086c-22.4 0-40.457 18.057-40.457 40.229s18.057 40.229 40.457 40.229h431.086c22.4 0 40.457-18.057 40.457-40.229s-18.057-40.229-40.457-40.229zM404.114 513.143h-350.171c-22.4 0-40.457 18.057-40.457 40.229s18.057 40.229 40.457 40.229h350.4c22.4 0 40.457-18.057 40.457-40.229-0.229-22.171-18.286-40.229-40.686-40.229zM1024-130.972h-970.057c-22.4 0-40.457 18.057-40.457 40.229s18.057 40.229 40.457 40.229h970.057c22.4 0 40.457-18.057 40.457-40.229s-18.057-40.229-40.457-40.229zM934.171 155.428c-180.8 0-327.771 146.514-327.771 326.629s146.971 326.629 327.771 326.629 327.771-146.514 327.771-326.629c0-180.114-146.971-326.629-327.771-326.629zM934.171 728c-136.229 0-247.086-110.4-247.086-245.943 0-135.771 110.857-245.943 247.086-245.943s247.086 110.4 247.086 245.943c0 135.543-110.857 245.943-247.086 245.943zM1293.486 83.885c-10.286 0-20.8 3.886-28.571 11.886l-156.343 155.429c-15.771 15.771-15.771 41.143 0 56.914s41.371 15.771 57.143 0l156.343-155.657c15.771-15.771 15.771-41.143 0-56.914-8-7.771-18.286-11.657-28.571-11.657z" />
<glyph unicode="&#xe907;" glyph-name="search-doc" data-tags="search-doc" horiz-adv-x="1056" d="M48-160h672c26.464 0 48 21.536 48 48v240c0 0.32-0.16 0.576-0.192 0.896 1.76 1.12 3.584 2.176 5.312 3.36l255.552-255.552c3.136-3.136 7.232-4.704 11.328-4.704s8.192 1.568 11.328 4.672c6.24 6.24 6.24 16.384 0 22.624l-253.216 253.216c40.448 37.984 65.888 91.776 65.888 151.488 0 73.504-38.432 138.112-96.192 175.104 0.032 0.32 0.192 0.576 0.192 0.896v80c0 0.544-0.256 0.992-0.288 1.504-0.064 0.736-0.256 1.376-0.416 2.080-0.544 2.272-1.472 4.32-2.88 6.112-0.224 0.288-0.192 0.64-0.416 0.928l-256 288c-0.096 0.096-0.224 0.096-0.32 0.192-1.92 2.080-4.384 3.456-7.136 4.288-0.608 0.192-1.152 0.256-1.792 0.352-0.928 0.16-1.792 0.544-2.752 0.544h-448c-26.464 0-48-21.536-48-48v-928c0-26.464 21.536-48 48-48zM832 304c0-97.056-78.976-176-176-176s-176 78.944-176 176 78.976 176 176 176 176-78.944 176-176zM512 805.92l204.384-229.92h-188.384c-7.040 0-16 13.44-16 24v205.92zM32 816c0 8.832 7.2 16 16 16h432v-232c0-25.888 20.96-56 48-56h208v-48.032c-24.64 10.304-51.648 16.032-80 16.032-58.816 0-111.872-24.64-149.728-64h-330.272c-8.832 0-16-7.168-16-16s7.168-16 16-16h305.024c-18.080-28.128-29.504-60.832-32.192-96h-272.832c-8.832 0-16-7.168-16-16s7.168-16 16-16h272.8c2.688-35.168 14.144-67.872 32.192-96h-304.992c-8.832 0-16-7.168-16-16s7.168-16 16-16h328c0.672 0 1.248 0.288 1.92 0.384 37.888-39.584 91.104-64.384 150.080-64.384 28.352 0 55.36 5.728 80 16.064v-224.064c0-8.832-7.2-16-16-16h-672c-8.96 0-16 7.040-16 16v928zM176 544h192c8.832 0 16 7.168 16 16s-7.168 16-16 16h-192c-8.832 0-16-7.168-16-16s7.168-16 16-16zM176 32h416c8.832 0 16 7.168 16 16s-7.168 16-16 16h-416c-8.832 0-16-7.168-16-16s7.168-16 16-16z" />
<glyph unicode="&#xe908;" glyph-name="minus" data-tags="minus" d="M213.333 341.333h597.333c23.552 0 42.667 19.115 42.667 42.667s-19.115 42.667-42.667 42.667h-597.333c-23.552 0-42.667-19.115-42.667-42.667s19.115-42.667 42.667-42.667z" />
<glyph unicode="&#xe909;" glyph-name="arow-down" data-tags="arow-down" horiz-adv-x="935" d="M0 457.54l474.392-385.652 423.184 779.864-423.184-973.4-474.392 579.188z" />
<glyph unicode="&#xe90a;" glyph-name="catalog" data-tags="catalog" d="M421.6 858.4c-3.2-2.4-5.6-11.2-5.6-19.2 0-11.2-8-15.2-37.6-16.8l-38.4-2.4-2.4-37.6-2.4-38.4h-90.4c-99.2 0-100.8-0.8-100.8-48 0-32.8 8-48 24.8-48 12 0 15.2 5.6 15.2 32v32h151.2l2.4-29.6 2.4-30.4 166.4-2.4 165.6-1.6v64h168v-840h-656v367.2c0 375.2-2.4 401.6-29.6 364.8-8-12-10.4-85.6-10.4-376.8 0-199.2 2.4-367.2 4.8-374.4 4-11.2 44-12.8 363.2-12.8s359.2 1.6 363.2 12.8c6.4 16 6.4 862.4 0 878.4-4 10.4-20.8 12.8-104 12.8h-99.2v80h-44c-41.6 0-44 0.8-44 20 0 20 0 20-78.4 20-43.2 0-81.6-2.4-84-5.6zM640 732v-52h-264v104h264v-52zM257.6 568.8c-7.2-4-9.6-22.4-8-61.6l2.4-55.2h120l2.4 50.4c1.6 30.4-1.6 55.2-7.2 62.4-10.4 12-92 16-109.6 4zM400 512c0-15.2 5.6-16 184-16s184 0.8 184 16c0 15.2-5.6 16-184 16s-184-0.8-184-16zM253.6 395.2c-3.2-3.2-5.6-30.4-5.6-60 0-61.6 1.6-63.2 68-63.2 54.4 0 61.6 8.8 58.4 73.6l-2.4 50.4-56 2.4c-31.2 0.8-59.2 0-62.4-3.2zM400 344c0-23.2 16.8-24.8 200-22.4 163.2 2.4 164 2.4 166.4 20.8l2.4 17.6h-184c-179.2 0-184.8-0.8-184.8-16zM251.2 221.6c-2.4-6.4-3.2-34.4-1.6-62.4l2.4-51.2 57.6-2.4c55.2-2.4 58.4-1.6 62.4 16.8 3.2 10.4 4 38.4 2.4 62.4l-2.4 43.2-58.4 2.4c-44 1.6-59.2-0.8-62.4-8.8zM401.6 174.4l2.4-18.4h360l2.4 18.4 2.4 17.6h-369.6l2.4-17.6zM249.6-1.6l2.4-58.4h120v112l-124.8 4.8 2.4-58.4zM403.2 12.8c-10.4-26.4 4.8-28.8 185.6-28.8h180l-2.4 18.4c-2.4 17.6-2.4 17.6-180.8 20-150.4 1.6-178.4 0-182.4-9.6z" />
<glyph unicode="&#xe90b;" glyph-name="group" data-tags="group" horiz-adv-x="1396" d="M0 364.591l213.854 191.023 425.339-476.173-213.854-191.023-425.339 476.173zM1208.906 864l187.46-216.984-929.93-803.402-187.46 216.984 929.93 803.402z" />
<glyph unicode="&#xe90c;" glyph-name="assortment" data-tags="assortment" d="M835.33 454.724h-381.462c17.639 20.276 28.357 46.725 28.357 75.647 0 63.646-51.778 115.424-115.424 115.424s-115.424-51.778-115.424-115.424c0-28.922 10.718-55.371 28.355-75.647h-91.059c-55.026 0-99.793-44.767-99.793-99.793v-117.754c0-11.023 8.935-19.959 19.959-19.959s19.959 8.935 19.959 19.959v117.754c0 33.015 26.86 59.876 59.876 59.876h558.84c33.015 0 59.876-26.86 59.876-59.876v-107.776h-207.569c-55.026 0-99.793-44.767-99.793-99.793s44.767-99.793 99.793-99.793h207.569v-107.776c0-33.015-26.86-59.876-59.876-59.876h-558.84c-33.015 0-59.876 26.86-59.876 59.876v117.911c0 11.023-8.935 19.959-19.959 19.959s-19.959-8.935-19.959-19.959v-117.911c0-55.026 44.767-99.793 99.793-99.793h646.657c55.026 0 99.793 44.767 99.793 99.793v415.138c0 55.026-44.767 99.793-99.793 99.793zM366.8 605.876c41.636 0 75.507-33.872 75.507-75.507s-33.872-75.507-75.507-75.507c-41.634 0-75.507 33.872-75.507 75.507s33.872 75.507 75.507 75.507zM827.292 414.807h8.037c33.015 0 59.876-26.86 59.876-59.876v-107.776h-47.901v107.776c0 22.447-7.455 43.184-20.012 59.876zM539.943 147.362c0 33.015 26.86 59.876 59.876 59.876h295.387v-119.751h-295.387c-33.015 0-59.876 26.86-59.876 59.876zM835.33-120.083h-8.037c12.558 16.691 20.012 37.426 20.012 59.876v107.776h47.901v-107.776c0-33.015-26.86-59.876-59.876-59.876zM594.709 167.322c-5.269 0-10.418-2.136-14.131-5.848s-5.828-8.862-5.828-14.111 2.116-10.398 5.828-14.111c3.732-3.712 8.862-5.848 14.131-5.848 5.249 0 10.378 2.136 14.111 5.848 3.712 3.712 5.848 8.862 5.848 14.111s-2.136 10.398-5.848 14.111c-3.712 3.714-8.862 5.848-14.111 5.848zM657.202 589.25c63.646 0 115.424 51.778 115.424 115.424 0 63.644-51.778 115.424-115.424 115.424s-115.424-51.778-115.424-115.424 51.778-115.424 115.424-115.424zM657.202 780.18c41.634 0 75.507-33.872 75.507-75.507s-33.872-75.507-75.507-75.507-75.507 33.872-75.507 75.507 33.872 75.507 75.507 75.507zM462.266 667.246c11.023 0 19.959 8.935 19.959 19.959v156.836c0 11.023-8.935 19.959-19.959 19.959s-19.959-8.935-19.959-19.959v-156.836c0-11.023 8.935-19.959 19.959-19.959zM366.465 736.265c11.023 0 19.959 8.935 19.959 19.959v87.818c0 11.023-8.935 19.959-19.959 19.959s-19.959-8.935-19.959-19.959v-87.818c0-11.023 8.935-19.959 19.959-19.959zM108.838 127.405c5.249 0 10.398 2.136 14.111 5.848s5.848 8.862 5.848 14.111-2.136 10.398-5.848 14.111-8.842 5.848-14.111 5.848c-5.249 0-10.398-2.136-14.111-5.848s-5.848-8.862-5.848-14.111 2.136-10.398 5.848-14.111 8.86-5.848 14.111-5.848z" />
<glyph unicode="&#xe90d;" glyph-name="cart" data-tags="cart" horiz-adv-x="1211" d="M0 797.139c9.035 24.094 27.407 32.226 52.405 31.624 44.273-0.602 88.847-0.301 133.12 0 12.047 0 22.889-2.711 32.527-10.541 2.711-2.409 7.529-3.012 11.445-3.012 22.588-0.301 45.176 0 67.765-0.301 34.334-0.602 59.332-20.179 68.367-53.308 2.409-9.336 4.518-18.974 7.228-28.311 8.433-28.913 17.167-57.826 26.202-87.341 16.866 0 34.334 0 51.501 0 12.951 0 20.781-6.626 20.781-17.167 0-10.24-7.831-16.565-21.082-16.565-35.238 0-70.776 0-107.52 0 5.722-22.889 11.445-44.574 16.866-66.259 4.518-18.071 9.035-36.442 14.155-54.513 17.468-65.054 34.936-130.108 52.706-195.162 6.325-23.492 13.553-46.682 20.179-69.873 5.12-17.769 16.866-26.805 35.84-26.805 186.428 0 372.555 0 558.984 0 18.372 0 30.118 9.638 35.539 27.106 3.915 12.649 7.831 25.6 12.047 38.249 3.313 9.638 11.144 14.456 19.878 12.348 9.336-2.409 15.059-10.541 12.649-20.48-3.614-15.36-6.927-30.72-12.047-45.779-9.035-27.407-35.238-45.176-66.259-45.176-42.165-0.301-84.329 0-126.494 0-168.96 0-337.92 0-507.181-0.301-9.035 0-18.673-2.409-26.805-6.325-15.36-7.831-20.179-20.781-16.866-36.442 2.711-13.553 15.661-24.998 31.322-26.805 5.722-0.602 11.144-0.602 16.866-0.602 232.207 0 464.414 0 696.621 0 9.035 0 18.071-0.602 26.805-3.012 19.878-5.421 32.527-25.6 31.021-46.984s-16.565-39.153-37.647-41.562c-17.468-2.108-35.238-2.108-54.513-3.012 15.661-21.685 19.878-45.478 10.24-69.271-7.228-17.769-18.673-34.033-35.84-44.875-30.72-19.576-74.089-17.769-102.701 4.518-34.033 25.901-44.574 64.452-23.191 109.929-124.687 0-249.073 0-374.664 0 13.252-24.998 17.167-50.598 5.12-75.896-6.024-12.348-14.758-25.6-25.6-33.431-46.984-32.828-86.739-18.673-111.736 0.602-32.527 25.299-38.551 62.344-19.275 109.026-44.875 3.915-82.522 20.781-108.424 59.031-15.962 23.492-24.998 49.092-22.889 78.005 2.409 34.936 18.974 62.946 43.369 85.835 24.696 22.889 55.115 34.033 91.256 34.936-9.035 30.72-18.071 59.332-25.901 88.245-7.529 26.805-13.854 53.609-20.781 80.715-7.831 30.118-15.36 60.235-23.191 90.353-17.468 62.344-34.334 124.386-51.2 186.428-4.518 16.565-5.12 16.866-21.685 16.866-5.722 0-11.445 0-16.866 0-11.144 0.301-21.685 0.301-31.624-7.831-5.722-4.518-15.36-5.722-23.492-5.722-46.682-0.602-93.365-0.301-140.047-0.301-23.492 0.301-39.755 10.24-47.285 32.828 0 18.974 0 37.647 0 56.32zM413.515 202.616c-4.216 21.384-5.12 21.986-20.179 21.082-30.419-2.108-55.718-16.565-72.282-40.96-37.346-54.513-10.24-127.398 58.127-141.553 25.299-5.12 52.706-0.301 79.209 0 10.541 0 20.781 0.301 31.322 0 11.144-0.602 22.287-3.012 33.431-3.012 135.831-0.301 271.661-0.301 407.492 0 20.48 0 40.96 3.012 61.741 4.216 6.024 0.301 12.047 0.602 18.071 0 24.395-1.506 48.489-3.313 72.885-4.518 9.638-0.602 19.576 0 29.214 0 7.831 0 17.167-0.904 17.468 10.541s-9.035 11.144-17.167 11.144c-3.614 0-7.529 0-11.144 0-229.195 0-458.391 0-687.586 0-8.734 0-17.167 0.602-25.901 2.108-34.033 5.722-58.127 32.828-59.633 66.56-1.506 33.129 21.082 62.344 54.513 70.475 9.939 2.108 19.878 2.711 30.419 3.915zM115.049 743.529c0 0 0 0.301 0 0.301 23.191 0 46.682 0.301 69.873 0 7.529 0 11.144 2.108 11.144 10.24-0.301 9.638-0.301 19.576 0 29.214 0.301 7.529-3.012 10.842-10.842 10.842-45.779 0-91.558 0-137.336 0.301-7.529 0-11.144-3.313-11.144-10.842 0-9.336 0.301-18.673 0-28.009-0.301-8.734 3.313-12.047 12.047-12.047 21.986 0.301 44.273 0 66.259 0zM1002.315 5.346c-29.816 0-50.598-19.878-50.899-48.188-0.301-24.696 16.565-47.586 50.598-49.092 26.805-1.205 51.501 22.889 51.802 48.791 0.301 26.202-23.191 48.489-51.501 48.489zM523.746-42.541c0 28.009-20.781 47.887-49.995 47.887-28.311 0-50.296-21.986-51.501-48.791-0.904-24.094 25.6-48.489 50.899-48.791 28.612-0.301 50.598 21.384 50.598 49.694zM358.099 648.659c-9.336 35.84-17.468 71.078-28.009 105.713-3.614 12.047-12.951 22.889-27.106 24.094-19.275 1.506-38.852 1.205-58.428 2.108-9.336 0.602-8.734-5.421-9.035-11.746 0-6.626-0.301-12.047 9.035-11.445 12.047 0.602 24.094 0 36.141 0 19.576 0 24.094-3.614 29.214-22.287 6.626-24.094 13.553-47.887 20.48-71.981 5.722-18.071 6.024-18.071 27.708-14.456zM1210.729 585.412c-3.915-14.456-7.831-28.913-11.746-43.068-18.071-68.066-36.141-135.831-54.513-203.896-3.313-12.951-13.553-19.576-24.696-16.565-9.638 2.711-13.854 11.746-10.541 24.696 7.228 28.311 14.456 56.621 21.986 84.932 13.553 51.2 27.708 102.4 41.261 153.901 4.819 18.673-1.807 26.805-21.384 26.805-201.487 0-402.673 0-604.16 0.301-6.024 0-12.649-0.301-17.468 2.409-4.518 2.711-9.939 9.336-9.638 13.854 0.301 5.12 5.722 11.144 10.24 14.758 3.313 2.711 9.336 2.409 14.155 2.409 202.993 0 405.685 0 608.678 0 28.913 0 48.489-12.951 57.826-40.358 0-6.626 0-13.553 0-20.179zM1041.769 516.141c-4.216-14.155-9.638-31.322-14.155-48.489-12.348-48.791-23.793-97.581-36.442-146.071-1.506-5.421-5.421-12.649-9.939-14.456-5.421-2.409-15.059-2.711-19.275 0.602s-6.927 12.649-6.024 18.372c3.313 18.673 8.433 37.346 13.252 55.718 12.047 46.984 24.395 93.967 36.744 140.951 3.012 11.144 11.144 16.866 20.48 15.059 10.842-2.409 15.962-8.433 15.36-21.685zM567.115 318.871c-4.819-4.819-9.035-11.445-14.758-14.155-7.529-3.614-15.059 0-18.974 7.529-3.614 6.927-6.626 14.155-8.433 21.384-14.155 56.621-27.708 113.544-41.864 170.165-0.904 3.313-1.205 6.626-2.711 9.638-3.915 9.336 0.602 19.576 9.939 23.191s18.974-1.205 21.986-11.445c3.313-10.842 5.421-21.685 8.132-32.828 14.155-54.513 28.311-109.026 42.466-163.539 0.602-2.409 1.205-5.12 1.807-7.529 0.904-0.904 1.506-1.506 2.409-2.409zM706.259 323.991c0.904-11.746-5.722-19.878-15.962-20.48-11.746-0.602-18.974 5.421-19.878 17.769-5.421 64.753-10.842 129.506-15.962 194.259-1.205 13.553 4.518 21.384 15.059 22.287 12.348 0.904 19.878-5.421 21.082-19.576 5.421-64.753 10.541-129.506 15.661-194.259zM813.176 331.219c5.12 60.536 10.24 124.386 15.661 188.235 0.904 10.24 10.842 18.974 20.179 18.372 10.541-0.602 16.866-8.734 15.661-21.685-4.819-58.428-9.638-116.555-14.456-174.984-0.301-4.819-0.904-9.638-1.205-14.456-0.904-16.264-7.228-23.793-19.878-23.191-11.746 0.602-16.866 8.132-15.962 27.708z" />
<glyph unicode="&#xe90e;" glyph-name="delivery" data-tags="delivery" d="M84 671.6c-3.6-2.6-8.6-7.2-10.8-10.2-4.2-5.6-4.2-7-4.8-160.2-0.4-154.2-0.4-154.6 3.8-159.8 5.2-6.6 16.8-7.4 24-1.6l4.8 3.8 0.6 149.2 0.4 149.2h616v-148.4c0.2-126.2 0.6-149.2 3-152.4 4-5.4 19-7.4 23.4-3.2 4.8 4.6 7.6 13 7.6 23.2v9l99.6-0.6c85.2-0.6 100.4-1 103.4-3.6 2-1.6 4-2.8 4.4-2.4 4.6 3.2 28.6-20.6 28.6-28.6 0-0.6-12.6-1-28-1-38.2 0-39.2-1-37.6-40.6 0.6-18.2 1.8-24.4 5.4-32 9-18.6 28.2-29.4 52.4-29.4h11.2v-34l-0.2-34h-40.2l-7 13.6c-14.2 27.6-43.6 48.6-74.8 53-43.2 6.2-85.6-15.2-105.2-53.2-3.8-7.4-8-13.4-9.4-13.4-1.8 0-2.6 15.4-3 62.8l-0.6 62.8-4.8 5.2c-6.6 7-16.6 7-23.2 0.2l-5-4.8v-126.2h-331l-7 13.6c-21 40.6-70.8 62.8-115 51.4-27.8-7.4-54.8-28.8-66-52.4l-6-12.6h-91v33.8l38.2 0.6c37.4 0.6 38.2 0.8 42 5.4 5.4 6.6 5 17.2-1.2 23.2l-4.8 5h-82.8c-80.8 0-83-0.2-88.2-4.2-6.4-5.2-7.2-16.8-1.4-24 3.6-4.6 5.4-4.8 33.6-5.8l29.6-1 1-23c1.2-26.4 4.2-33 18.6-40.4 7.8-3.8 11.4-4.2 54.8-4.2h46.6v-7.4c0-29.4 22.8-65.2 51.8-81.6 7.2-4 14.2-7.4 15.2-7.6 1.2-0.2 6-1.4 11-2.6 11.4-2.6 36.4-2.8 48 0 38.4 8.8 70.8 44.6 76.6 84.2l2.2 15h359.2v-6.4c0-16.4 10.6-43 23.6-58.8 7.2-9 31.6-28.2 35.6-28.2 1.2 0 5.8-1.4 10-3.4 8.6-3.6 11.2-4 32.8-4.4 14.2-0.4 19.6 0.2 28 2.8 2 0.6 5.4 1.6 7.6 2 7.6 1.4 30.2 17.4 40.2 28.2 15 16.4 26.2 42.2 26.2 61v7.2h58.6l4.8 5.4 4.8 5.6-0.6 100.4-0.6 100.2-6.4 13.2c-11 22-33 40.6-54.6 45.8l-9.2 2.2-12.8 51.6-12.8 51.8 6 5c5.8 5 5.8 5.4 5.6 24.8 0 17-0.8 21.2-5.6 31.8-6.6 14.6-20.4 28.8-34.2 35.2-9.8 4.4-12 4.6-78.2 5.2l-68.4 0.6-0.8 22.6c-1 26-4 33.4-17.2 40.8l-8 4.4h-635.8l-6.6-4.4zM885.8 571c2.8-1.4 7.2-4.8 9.6-7.4 5.4-5.6 11.2-19 9.6-21.6-0.8-1.2-31-2-77.2-2h-75.8v34h64.2c50-0.2 65.6-0.8 69.6-3zM893.8 498.6c1.2-4.2 6.8-27.2 12.8-51l11-43.6h-165.6v102h139.8l2-7.4zM991.4 282.8v-17.2l-12.8 0.8c-17 1-21 5-22.2 21.6l-0.8 12h35.8v-17.2zM318.2 191.4c17.4-8.4 35.2-29 36.6-41.8 0.2-2.6 1-5.6 1.8-6.8 0.6-1.2 1-8.4 0.8-16-0.8-24.8-15.8-47.8-38.6-59-14.2-6.8-37.6-7.8-53.2-1.8-14.8 5.4-29.2 18.6-36.6 33.4-5 9.6-6 14.4-6.4 27.6-0.6 19.4 2.6 30.4 13 44 7.4 9.8 23.8 21.4 35.4 25 11.4 3.6 35.6 1.2 47.2-4.6zM882.2 191.6c17.4-8 33-25.8 37.2-42.4 2.4-10 2.8-28.6 0.4-37-13.2-50-76.8-67.6-112.8-31.4-15.8 15.8-20 26.2-20 49.2 0.2 20.2 2.8 28 14.4 43.2 17.2 22.6 53.4 31 80.8 18.4zM274.4 159.8c-16.4-8.2-23-28.8-14.4-45.8 5.4-10.6 14.4-16.6 27-17.6 31-2.6 48.4 32.6 27.6 55.8-11 12-25.4 14.8-40.2 7.6zM843.2 162c-7.4-2.4-17-11.2-20.4-19.4-9.2-21.4 7.6-46.4 30.8-46.6 29.8 0 45 34 25 56-9.4 10.6-21.6 14-35.4 10zM466 449l-73-73-39 39c-37 36.8-39.6 39-46.8 39-9.6 0-17.2-7.2-17.2-16.4 0-5.8 5-11.4 47.4-54 46.2-46.2 47.8-47.6 55.4-47.6 8 0 9.4 1.4 86.8 78.6 43.4 43 80 81.2 81.6 84.8 2 4.8 2.2 7.8 0.6 12.4-2.6 7.4-7 10.2-16.2 10.2-6.2 0-12.6-5.8-79.6-73zM39.2 295.8c-4-3.2-5.2-5.8-5.2-12 0-9.4 4.8-15 14.4-16.8 3.6-0.6 53.2-1 110-0.6l103.2 0.6 5.2 4.8c7 6.6 7 16.6 0.2 23.2l-4.8 5h-108.8c-107.2 0-109 0-114.2-4.2zM415 227c-6.2-6-6.6-16.6-1.2-23.2l3.8-4.8h256.8l3.8 4.8c5.8 7.2 5 18.8-1.4 24-5.2 4.2-6.8 4.2-131.2 4.2h-125.8l-4.8-5z" />
<glyph unicode="&#xe90f;" glyph-name="quality" data-tags="quality" d="M501.8 819.4c-7.2-5.4-7.8-10.4-7.8-58.4 0-30 0.8-48.8 2.2-51.4 1.2-2.2 5.2-5.2 9-6.8 5.8-2.4 7.8-2.4 13.6 0 3.8 1.6 7.8 4.6 9 6.8 3.2 5.8 3 97.2-0.2 103-3.4 6.6-7.8 9.2-15.6 9.2-3.8 0-8.4-1-10.2-2.4zM316.4 763.4c-2.8-3-4.4-7.2-4.4-11.8 0-9.6 19-55.4 25.2-61 11-10 28.8-2.6 28.8 12 0 8.2-18.6 54.6-24.6 61-5.8 6.2-19 6.2-25-0.2zM682.6 763.6c-6-6.4-24.6-52.8-24.6-61 0-14.6 19.6-22.8 29.4-12 6 6.2 25 53 25 61 0 9.8-7 16.4-17.4 16.4-6 0-9.4-1.2-12.4-4.4zM154.8 676c-6.4-2.6-10.8-10-10.8-17.8 0-6.4 3-10 34.6-41.6 34-34 34.6-34.6 43-34.6 11.4 0 18.4 6.6 18.4 17.2 0 7.2-2.2 9.8-34.4 42.2-35.6 35.6-40.6 39-50.8 34.6zM819.6 642.4c-34.4-34.4-35.6-35.8-35.6-43.6 0-13.4 12-21.4 24.4-16.2 3.6 1.6 21.2 17.8 39.2 35.8 29.8 30.2 32.4 33.4 32.4 40 0 10-1.6 13.2-8.2 16.6-12.4 6.6-14.2 5.6-52.2-32.6zM477.4 649.8c-24.2-2.4-60.6-10.8-83.4-19.2-113.6-42.2-194.4-137.4-218.4-257-6.2-30.6-6.6-92.2-0.8-122.6 4.8-25.6 13-53.6 22.2-74.8 3.8-9.2 6.8-17 6.4-17.4s-14.8-3-32-5.6c-29.2-4.6-68.4-8.8-121.2-12.8l-23-1.8-6.6-7.2c-5.6-6.2-6.6-8.8-6.6-16.8 0-5.8 1.4-11.8 3.6-15 2.4-3.8 73.2-64.6 79.8-68.6 0.2 0-9.6-26.8-21.8-59.4-24.8-66.4-25.2-68.4-12.6-81 5.8-5.8 7.8-6.6 17.2-6.6 13 0 49.4 5.8 88.4 14 73.4 15.6 144.2 38.2 215.4 69l31 13.2 19-4c29.6-6.6 44.6-8.2 78-8.2s48.6 1.6 78 8.2l19 4.2 19-8.4c52.2-23.2 112.6-44.6 169-59.8 53-14.4 125-28.2 146.8-28.2 9.4 0 11.4 0.8 17.2 6.6 12.6 12.6 12.2 14.6-12.6 80.8l-22 58.8 37.4 31c20.4 17 39.2 33.8 41.8 37.2 6.8 9.6 6.2 23.4-1.8 32.4-7.2 8.2-8 8.4-49.8 11.2-42.4 2.8-130.6 14-133.4 16.8-0.2 0.2 2.6 8 6.6 17.4 38.4 90.8 34.8 198-9.2 285.8-46.2 92.2-131 158.8-230 180.8-38.2 8.4-72.6 10.6-110.6 7zM564 610.8c34.2-5.6 82.6-24.2 110.8-42.4 33.2-21.4 70-57.2 90.8-88.4 23.4-35 40-75.6 47.6-117 5.6-29.6 5-84.4-1-113-23.2-109.8-99.6-196-204.6-231-36.4-12-50-14-95.6-14-35.6 0-43.8 0.6-61.8 4.6-94.8 21.4-171.2 80.8-212.2 165.4-13.4 27.6-20.2 47.2-26.4 75.8-5.8 27.8-6.4 83-0.8 112.2 11.2 60 38.4 113.4 80.2 156.8 36.4 37.8 74 62 122.2 78.8 47.8 16.6 100 21 150.8 12.2zM240 102.2c25.8-34.6 63.2-67.2 102.6-89.6 10.2-5.8 19.6-11.2 21.2-12.2 6.2-3.6-98.6-41-158.8-56.4-29.6-7.6-81-18.6-99.6-21.2l-9.4-1.2 4 10.6c2.2 6 10.8 28.4 18.8 49.8l14.6 39 20.8 3.6c39.6 6.6 66 13.4 71.2 18.6 9.2 9.2 4.4 26.8-8.2 30-2.4 0.6-11.6-0.8-20.4-3-20.4-5.2-59.6-12.2-68.2-12.2-5.6 0-11.2 3.8-34.8 23.6l-28.2 23.4 27.6 2.4c36.6 3.2 74 8 104.8 13.4 21.4 3.8 25.2 4 27 1.6 1.2-1.6 7.8-10.6 15-20.2zM877 113c14.4-1.8 38.4-4.4 53.8-5.6l27.6-2.4-28.2-23.4c-23.6-19.8-29.2-23.6-34.8-23.6-8.6 0-47.8 7-68.2 12.2-8.8 2.2-18 3.6-20.4 3-12.6-3.2-17.4-20.8-8.2-30 5.2-5.2 31.6-12 71.2-18.6l21-3.6 18.4-49c10-27 18-49.4 17.6-49.8-1.6-1.6-73.4 13-112.4 23-43.2 11.2-112.2 34.6-148.4 50.4l-9 3.8 14.4 7.2c30.6 15.6 69.8 45.8 93 72 13.8 15.6 29.6 35.8 33.2 42.6l2.2 4 25.6-4.4c14-2.4 37.4-6 51.6-7.8zM500.2 578.6c-2.2-2-19.6-35.6-38.4-74.6s-35-71.6-35.6-72.6c-0.8-0.8-35.6-6.4-77.4-12.4-41.6-6.2-77.8-11.6-80.4-12.2-7.8-1.6-12.4-8-12.4-17.2 0-8.6 0.2-8.8 58.4-67l58.4-58.4-12.8-75.6c-7-41.6-13.2-78.8-13.6-82.6-1-9.2 5.2-17.4 14.6-19.2 6-1 14.4 3 79 37.2l72.2 38.4 72.2-38.4c68.2-36.4 72.6-38.4 79.2-36.8 3.8 1 8.8 4.2 11 7.2l4 5.4-13.6 82.2-13.8 82.2 58.4 58.4c56 56.2 58.4 58.8 58.4 66 0 10.6-2.8 15-11.6 17.4-4 1.2-41.2 7-82.4 13.2-41.2 6-75.6 11.6-76.2 12.4-0.8 0.8-16.8 33.4-35.6 72.4s-36.2 72.6-38.4 74.6c-2.4 1.8-7.6 3.4-11.8 3.4s-9.4-1.6-11.8-3.4zM518.8 510.2c16-35.8 54-110.4 56.8-112 1.8-1 32.6-6 68.4-11.4 35.8-5.2 65.4-9.8 65.8-10.2 0.6-0.4-20.8-22.6-47.4-49.2-44.6-44.6-48.4-49.2-48.4-55.4 0-3.8 4.8-35.4 10.8-70s10.6-63.2 10.6-63.2c-0.2-0.2-26.4 13.6-58.4 30.8-44.4 23.8-59.6 31-65 31-5-0.2-23.2-8.8-65-31.2-31.8-17-58.2-31-58.2-30.8-0.2 0.2 4.4 28.4 10.4 62.4 5.8 34.2 10.6 65.6 10.8 70 0 7.8-1.2 9.2-48.4 56.4-26.6 26.6-48 48.8-47.6 49.2 0.6 0.4 30.2 5 66 10.2s66.8 10.6 69 12c2.2 1.6 16.8 29.4 33 63 16 33 29.6 60.2 30.2 60.2 0.8 0 3.6-5.4 6.6-11.8zM57.8 504.8c-5.8-6.2-6.4-18.6-1.2-24.2 1.8-2.2 16.2-9.2 32.2-15.6l28.6-11.6 7.8 3.8c9.8 4.8 13 13.8 8.2 23.6-2.6 5.8-6.2 7.8-30.4 18-31 12.6-38 13.6-45.2 6zM920.4 498.4c-28-12-32.2-15.4-32.4-26.8 0-3 2.2-7.8 4.8-11 3.8-4.2 6.4-5.4 12.4-5.4 9 0.2 55.6 19 61.8 25 5.8 5.6 5.2 18.2-0.8 24.6-7.2 7.6-15.4 6.6-45.8-6.4zM9 325.8c-6.6-3.8-9-8.2-9-16.8 0-6 1.2-9.4 4.6-12.6 4.6-4.2 6-4.4 55.2-4.4h50.4l4.8 5c7 6.8 6.8 18.6-0.2 25.2-5 4.8-5.4 4.8-53.4 5.2-33 0.4-49.6-0.2-52.4-1.6zM916 326.6c-12.4-4.6-16.2-20.6-7-29.6l4.8-5h50.8c50.4 0 50.8 0 55 4.6 2.8 3 4.4 7.2 4.4 11.8 0 18.6-3 19.6-59.4 19.4-25 0-47-0.6-48.6-1.2z" />
<glyph unicode="&#xe910;" glyph-name="services" data-tags="services" d="M700.8 878.4c-9.6-13.6-12.8-38.4-12.8-98.4 0-99.2 8.8-116 59.2-116h34.4l-7.2-40.8c-12-67.2-10.4-68 80-11.2 64.8 40.8 89.6 52 113.6 52 50.4 0 56 12 56 116 0 72-2.4 93.6-12.8 103.2-10.4 10.4-36 12.8-155.2 12.8-138.4 0-143.2-0.8-155.2-17.6zM984 780v-76h-34.4c-25.6 0-44-7.2-75.2-28-23.2-15.2-44-28-47.2-28s-3.2 12.8-0.8 28l4.8 27.2-99.2 4.8-2.4 63.2c-1.6 35.2-0.8 68 1.6 74.4 3.2 8 32 10.4 128.8 10.4h124v-76zM392 835.2c-70.4-18.4-137.6-55.2-193.6-107.2-60.8-55.2-97.6-108.8-123.2-178.4l-17.6-49.6-10.4 22.4c-11.2 24-24 27.2-39.2 9.6-8-8.8-4.8-20 16-55.2 13.6-24.8 28-46.4 32-48.8 6.4-4 104 49.6 104 57.6 0 1.6-4 10.4-8 19.2-7.2 12.8-12 13.6-24.8 6.4-24.8-12.8-25.6-5.6-4.8 41.6 43.2 96 138.4 189.6 228.8 223.2 87.2 33.6 124.8 36 272.8 21.6 15.2-0.8 20.8 2.4 22.4 15.2 2.4 14.4-4 18.4-33.6 26.4-48.8 12-167.2 10.4-220.8-4zM438.4 723.2c-51.2-18.4-96.8-58.4-121.6-108.8-19.2-38.4-20.8-49.6-20.8-144 0-92 1.6-104 16-118.4 8.8-8.8 19.2-16 23.2-16s12-12.8 16.8-28.8c5.6-16 23.2-42.4 40-59.2l30.4-30.4-62.4-9.6c-73.6-11.2-105.6-28.8-125.6-68l-15.2-28-54.4 56 33.6 34.4c18.4 18.4 33.6 37.6 33.6 42.4 0 10.4-114.4 123.2-124.8 123.2-12.8 0-90.4-84-99.2-108-10.4-28-10.4-80.8 0.8-102.4 12.8-24.8 247.2-260.8 272.8-274.4 26.4-13.6 92-14.4 115.2-0.8 39.2 22.4 108.8 92.8 104.8 104.8-4.8 11.2 13.6 12.8 162.4 12.8 128.8 0 168 2.4 168 9.6 0 5.6-9.6 38.4-20.8 72-30.4 93.6-58.4 114.4-173.6 130.4l-38.4 5.6 21.6 23.2c16 16.8 29.6 23.2 48.8 23.2 16 0 32.8 6.4 42.4 16 14.4 14.4 16 26.4 15.2 150.4-0.8 144-4 164-44 219.2-49.6 69.6-160 103.2-244.8 73.6zM591.2 672c62.4-31.2 97.6-96 96-172.8-0.8-21.6-2.4-32.8-4.8-24.8-2.4 8.8-11.2 13.6-24.8 13.6-39.2 0-78.4 16-112.8 44.8l-33.6 29.6-21.6-20.8c-28-27.2-87.2-53.6-119.2-53.6-16.8 0-26.4-4.8-28.8-13.6-2.4-8-4 7.2-4.8 33.6-0.8 60.8 18.4 104 63.2 141.6 56 48 124.8 56.8 191.2 22.4zM548 476c20.8-10.4 49.6-21.6 64.8-24.8 27.2-4.8 27.2-4.8 27.2-51.2 0-24.8-4-56.8-8.8-71.2l-8.8-24.8h-59.2c-57.6 0-59.2-0.8-59.2-20 0-18.4 3.2-20 38.4-20l37.6-0.8-23.2-12.8c-29.6-15.2-86.4-10.4-115.2 11.2-42.4 31.2-53.6 55.2-56 121.6l-3.2 62.4 27.2 5.6c14.4 2.4 40.8 13.6 58.4 24s34.4 20 37.6 20c3.2 0.8 22.4-8 42.4-19.2zM129.6 175.2c-3.2-32-1.6-35.2 63.2-100.8 72.8-73.6 92.8-85.6 122.4-75.2 16 6.4 23.2 2.4 52.8-27.2l33.6-34.4-18.4-12.8c-10.4-7.2-31.2-12.8-46.4-12.8-25.6 0-40 12-162.4 134.4s-134.4 136.8-134.4 162.4c0 15.2 5.6 36 12.8 46.4l12.8 18.4 33.6-32.8c30.4-29.6 32.8-36 30.4-65.6zM477.6 142.4l34.4-33.6 71.2 69.6 56.8-9.6c92-15.2 113.6-32 132-107.2l5.6-21.6h-326.4l-31.2 32c-16.8 17.6-34.4 32-38.4 32-4.8 0-23.2-14.4-42.4-32s-37.6-32-41.6-32c-4 0-15.2 8.8-25.6 20-16 17.6-16.8 21.6-8 43.2 14.4 35.2 34.4 49.6 85.6 60.8 79.2 17.6 90.4 16 128-21.6zM884 542.4c-27.2-46.4-28-50.4-15.2-60 20-14.4 25.6-13.6 37.6 10.4 11.2 20.8 11.2 20.8 20-25.6 23.2-113.6-4.8-240-72.8-332.8-16.8-22.4-16.8-22.4-0.8-34.4 20.8-16 20.8-16 44 22.4 62.4 99.2 83.2 179.2 76.8 288-2.4 40-7.2 82.4-10.4 92.8-5.6 19.2-5.6 19.2 12.8 6.4 20-13.6 40-6.4 40 15.2 0 8-85.6 67.2-98.4 67.2-1.6 0-16.8-22.4-33.6-49.6z" />
<glyph unicode="&#xe91b;" glyph-name="telegram-fly" data-tags="telegram-fly" d="M881.707 719.122l-756.48-291.712c-51.627-20.736-51.328-49.536-9.472-62.379l194.219-60.587 449.365 283.52c21.248 12.928 40.661 5.973 24.704-8.192l-364.075-328.619-13.397-200.192c19.627 0 28.288 9.003 39.296 19.627l94.336 91.733 196.224-144.939c36.181-19.925 62.165-9.685 71.168 33.493l128.811 607.061c13.184 52.864-20.181 76.8-54.699 61.184z" />
<glyph unicode="&#xe938;" glyph-name="trash" data-tags="trash" horiz-adv-x="861" d="M430.308 592.484c126.422 0 252.844 0 379.266 0 14.688 0 14.566 0 12.563-14.566-7.222-51.528-14.323-103.055-21.546-154.583-7.344-52.256-14.93-104.512-22.274-156.768-7.708-54.744-15.294-109.55-22.942-164.355-10.196-72.77-20.393-145.601-30.589-218.371-0.303-2.003-0.789-3.945-1.092-5.948-2.488-14.991-6.555-18.572-21.424-18.511-49.282 0-98.625 0.182-147.907 0.182-126.422 0-252.783 0-379.205 0-6.312 0-12.624-0.425-18.936-0.243-11.289 0.303-16.569 4.916-18.268 16.205-4.552 31.257-8.922 62.513-13.352 93.77-9.589 67.55-19.179 135.040-28.647 202.591-9.832 70.039-19.422 140.138-29.254 210.177-9.468 67.55-18.997 135.101-28.768 202.591-1.092 7.465 2.246 7.769 7.89 7.769 128.182-0.061 256.364-0.061 384.546-0.061v0zM198.464 442.513c3.945-44.063 7.344-80.539 10.439-117.015 3.763-44.791 7.101-89.642 10.985-134.433 4.795-55.109 9.954-110.217 15.173-165.265 0.971-10.257 1.396-21 4.855-30.468 5.098-14.202 21.971-21.303 36.355-17.54 15.962 4.127 25.369 16.933 24.095 33.806-2.246 29.739-4.916 59.418-7.465 89.096-4.431 51.346-8.8 102.691-13.292 154.037-4.309 49.586-8.618 99.171-13.17 148.696-1.457 15.841-2.731 31.742-5.766 47.34-3.884 19.968-25.855 29.618-43.82 20.271-14.748-7.647-19.907-20.028-18.39-28.525zM662.031 434.32c-0.546 6.615-0.182 12.381-1.639 17.601-4.188 15.052-18.511 24.095-34.291 22.517-12.806-1.275-26.098-14.87-27.312-28.586-5.644-62.149-11.167-124.298-16.569-186.447-3.338-37.993-6.373-76.047-9.65-114.041-3.884-45.034-8.133-90.067-11.714-135.162-1.699-20.939 17.479-37.022 38.115-32.895 15.416 3.095 24.52 15.537 26.158 34.534 3.763 44.548 7.769 89.096 11.653 133.644 4.248 49.1 8.497 98.139 12.745 147.239 1.699 19.361 3.217 38.782 4.916 58.143 2.488 28.161 5.098 56.322 7.587 83.452zM398.505 225.417c0-72.345-0.121-144.63 0.061-216.914 0-18.572 14.688-32.592 32.835-32.531 17.904 0.121 31.074 14.081 31.074 33.077 0 144.144 0 288.228 0 432.372 0 19.604-14.020 33.684-33.199 33.563-17.601-0.121-30.771-14.384-30.771-33.381 0-72.042 0-144.144 0-216.186zM623.674 771.83c11.228 0 22.031 0 32.835 0 45.762 0 91.524 0.182 137.286 0.061 38.297-0.061 65.001-25.612 66.397-63.909 0.789-21.485 0.546-42.97 1.032-64.455 0.121-4.613-1.821-6.555-6.13-6.615-7.344-0.061-14.688-0.121-21.971-0.121-213.394 0-426.788 0-640.182 0.061-61.178 0-122.356 0-183.533-0.243-6.858 0-9.286 1.639-9.165 8.74 0.303 19.482-0.486 38.964-0.121 58.386 0.668 34.595 21.728 61.663 53.652 66.761 15.841 2.549 32.288 1.457 48.432 1.517 42.727 0.243 85.455 0.364 128.182 0.364 6.069 0 8.558 1.76 8.193 8.315-1.942 35.505 13.049 63.484 40.542 84.484 15.416 11.835 33.927 18.026 53.713 18.026 46.005 0 92.009-0.425 138.014-0.607 19.239-0.061 38.418-0.364 57.658 0.182 47.158 1.457 91.827-41.271 93.527-86.729 0.303-7.769 1.032-15.477 1.699-24.277zM302.854 771.83c8.8 0 17.54 0 26.34 0 64.941 0 129.881-0.061 194.822-0.121 9.347 0 18.693-0.182 28.040 0.303 2.185 0.121 5.826 2.549 6.069 4.309 3.824 24.58-10.378 42.060-34.959 42.242-63.181 0.364-126.361 0.243-189.542 0.121-16.751 0-29.618-12.745-30.771-29.496-0.364-4.977 0-10.014 0-17.419z" />
<glyph unicode="&#xe944;" glyph-name="cross-middle" data-tags="cross" d="M734.618 135.731c-24.013-24.013-62.925-24.013-86.886 0l-135.731 155.136-135.731-155.085c-24.013-24.013-62.925-24.013-86.886 0-24.013 24.013-24.013 62.925 0 86.886l141.21 161.28-141.261 161.382c-24.013 24.013-24.013 62.874 0 86.886s62.874 24.013 86.886 0l135.782-155.187 135.731 155.187c24.013 24.013 62.874 24.013 86.886 0s24.013-62.925 0-86.886l-141.21-161.382 141.21-161.28c24.013-24.013 24.013-62.925 0-86.938z" />
<glyph unicode="&#xe975;" glyph-name="user-check" data-tags="user-check" d="M960 288l-288-288-96 96-64-64 160-160 352 352zM448 128h320v115.128c-67.22 39.2-156.308 66.11-256 74.26v52.78c70.498 39.728 128 138.772 128 237.832 0 159.058 0 288-192 288s-192-128.942-192-288c0-99.060 57.502-198.104 128-237.832v-52.78c-217.102-17.748-384-124.42-384-253.388h448v64z" />
<glyph unicode="&#xe9da;" glyph-name="heart-like" data-tags="heart, like, love, favorite" d="M755.188 832c-107.63 0-200.258-87.554-243.164-179-42.938 91.444-135.578 179-243.216 179-148.382 0-268.808-120.44-268.808-268.832 0-301.846 304.5-380.994 512.022-679.418 196.154 296.576 511.978 387.206 511.978 679.418 0 148.392-120.43 268.832-268.812 268.832z" />
<glyph unicode="&#xea3b;" glyph-name="cancel-circle" data-tags="cancel-circle, close, remove, delete" d="M512 896c-282.77 0-512-229.23-512-512s229.23-512 512-512 512 229.23 512 512-229.23 512-512 512zM512-32c-229.75 0-416 186.25-416 416s186.25 416 416 416 416-186.25 416-416-186.25-416-416-416zM672 640l-160-160-160 160-96-96 160-160-160-160 96-96 160 160 160-160 96 96-160 160 160 160z" />
<glyph unicode="&#xea3d;" glyph-name="cancel" data-tags="cross, cancel, close, quit, remove" d="M1014.662 73.34c-0.004 0.004-0.008 0.008-0.012 0.010l-310.644 310.65 310.644 310.65c0.004 0.004 0.008 0.006 0.012 0.010 3.344 3.346 5.762 7.254 7.312 11.416 4.246 11.376 1.824 24.682-7.324 33.83l-146.746 146.746c-9.148 9.146-22.45 11.566-33.828 7.32-4.16-1.55-8.070-3.968-11.418-7.31 0-0.004-0.004-0.006-0.008-0.010l-310.648-310.652-310.648 310.65c-0.004 0.004-0.006 0.006-0.010 0.010-3.346 3.342-7.254 5.76-11.414 7.31-11.38 4.248-24.682 1.826-33.83-7.32l-146.748-146.748c-9.148-9.148-11.568-22.452-7.322-33.828 1.552-4.16 3.97-8.072 7.312-11.416 0.004-0.002 0.006-0.006 0.010-0.010l310.65-310.648-310.65-310.652c-0.002-0.004-0.006-0.006-0.008-0.010-3.342-3.346-5.76-7.254-7.314-11.414-4.248-11.376-1.826-24.682 7.322-33.83l146.748-146.746c9.15-9.148 22.452-11.568 33.83-7.322 4.16 1.552 8.070 3.97 11.416 7.312 0.002 0.004 0.006 0.006 0.010 0.010l310.648 310.65 310.648-310.65c0.004-0.002 0.008-0.006 0.012-0.008 3.348-3.344 7.254-5.762 11.414-7.314 11.378-4.246 24.684-1.826 33.828 7.322l146.746 146.748c9.148 9.148 11.57 22.454 7.324 33.83-1.552 4.16-3.97 8.068-7.314 11.414z" />
<glyph unicode="&#xf005;" glyph-name="star" data-tags="star" horiz-adv-x="951" d="M950.857 508c0-10.286-7.429-20-14.857-27.429l-207.429-202.286 49.143-285.714c0.571-4 0.571-7.429 0.571-11.429 0-14.857-6.857-28.571-23.429-28.571-8 0-16 2.857-22.857 6.857l-256.571 134.857-256.571-134.857c-7.429-4-14.857-6.857-22.857-6.857-16.571 0-24 13.714-24 28.571 0 4 0.571 7.429 1.143 11.429l49.143 285.714-208 202.286c-6.857 7.429-14.286 17.143-14.286 27.429 0 17.143 17.714 24 32 26.286l286.857 41.714 128.571 260c5.143 10.857 14.857 23.429 28 23.429s22.857-12.571 28-23.429l128.571-260 286.857-41.714c13.714-2.286 32-9.143 32-26.286z" />
<glyph unicode="&#xf006;" glyph-name="star-o" data-tags="star-o" horiz-adv-x="951" d="M649.714 304l174.857 169.714-241.143 35.429-108 218.286-108-218.286-241.143-35.429 174.857-169.714-41.714-240.571 216 113.714 215.429-113.714zM950.857 508c0-10.286-7.429-20-14.857-27.429l-207.429-202.286 49.143-285.714c0.571-4 0.571-7.429 0.571-11.429 0-15.429-6.857-28.571-23.429-28.571-8 0-16 2.857-22.857 6.857l-256.571 134.857-256.571-134.857c-7.429-4-14.857-6.857-22.857-6.857-16.571 0-24 13.714-24 28.571 0 4 0.571 7.429 1.143 11.429l49.143 285.714-208 202.286c-6.857 7.429-14.286 17.143-14.286 27.429 0 17.143 17.714 24 32 26.286l286.857 41.714 128.571 260c5.143 10.857 14.857 23.429 28 23.429s22.857-12.571 28-23.429l128.571-260 286.857-41.714c13.714-2.286 32-9.143 32-26.286z" />
<glyph unicode="&#xf159;" glyph-name="rub" data-tags="ruble" horiz-adv-x="731" d="M596 554.857c0 76.571-54.286 128-134.857 128h-182.857v-256h182.857c80.571 0 134.857 51.429 134.857 128zM731.429 554.857c0-146.857-106.286-249.714-258.857-249.714h-194.286v-67.429h288.571c10.286 0 18.286-8 18.286-18.286v-73.143c0-10.286-8-18.286-18.286-18.286h-288.571v-109.714c0-10.286-8-18.286-18.286-18.286h-95.429c-10.286 0-18.286 8-18.286 18.286v109.714h-128c-10.286 0-18.286 8-18.286 18.286v73.143c0 10.286 8 18.286 18.286 18.286h128v67.429h-128c-10.286 0-18.286 8-18.286 18.286v85.143c0 10.286 8 18.286 18.286 18.286h128v359.429c0 10.286 8 18.286 18.286 18.286h308c152.571 0 258.857-102.857 258.857-249.714z" />
<glyph unicode="&#xf189;" glyph-name="vk-brand" data-tags="vk-brand" horiz-adv-x="1119" d="M1095.429 580.571c8.571-23.429-18.286-78.286-85.714-168-110.857-147.429-122.857-133.714-31.429-218.857 88-81.714 106.286-121.143 109.143-126.286 0 0 36.571-64-40.571-64.571l-146.286-2.286c-31.429-6.286-73.143 22.286-73.143 22.286-54.857 37.714-106.286 135.429-146.286 122.857 0 0-41.143-13.143-40-101.143 0.571-18.857-8.571-29.143-8.571-29.143s-10.286-10.857-30.286-12.571h-65.714c-144.571-9.143-272 124-272 124s-139.429 144-261.714 431.429c-8 18.857 0.571 28 0.571 28s8.571 10.857 32.571 10.857l156.571 1.143c14.857-2.286 25.143-10.286 25.143-10.286s9.143-6.286 13.714-18.286c25.714-64 58.857-122.286 58.857-122.286 57.143-117.714 96-137.714 118.286-125.714 0 0 29.143 17.714 22.857 160-2.286 51.429-16.571 74.857-16.571 74.857-13.143 17.714-37.714 22.857-48.571 24.571-8.571 1.143 5.714 21.714 24.571 30.857 28 13.714 77.714 14.286 136.571 13.714 46.286-0.571 59.429-3.429 77.143-7.429 54.286-13.143 36-63.429 36-184.571 0-38.857-7.429-93.143 20.571-110.857 12-8 41.714-1.143 114.857 123.429 0 0 34.286 59.429 61.143 128.571 4.571 12.571 14.286 17.714 14.286 17.714s9.143 5.143 21.714 3.429l164.571 1.143c49.714 6.286 57.714-16.571 57.714-16.571z" />
<glyph unicode="&#xf232;" glyph-name="whatsapp" data-tags="whatsapp" horiz-adv-x="878" d="M562.857 321.143c9.714 0 102.857-48.571 106.857-55.429 1.143-2.857 1.143-6.286 1.143-8.571 0-14.286-4.571-30.286-9.714-43.429-13.143-32-66.286-52.571-98.857-52.571-27.429 0-84 24-108.571 35.429-81.714 37.143-132.571 100.571-181.714 173.143-21.714 32-41.143 71.429-40.571 110.857v4.571c1.143 37.714 14.857 64.571 42.286 90.286 8.571 8 17.714 12.571 29.714 12.571 6.857 0 13.714-1.714 21.143-1.714 15.429 0 18.286-4.571 24-19.429 4-9.714 33.143-87.429 33.143-93.143 0-21.714-39.429-46.286-39.429-59.429 0-2.857 1.143-5.714 2.857-8.571 12.571-26.857 36.571-57.714 58.286-78.286 26.286-25.143 54.286-41.714 86.286-57.714 4-2.286 8-4 12.571-4 17.143 0 45.714 55.429 60.571 55.429zM446.857 18.285c197.714 0 358.857 161.143 358.857 358.857s-161.143 358.857-358.857 358.857-358.857-161.143-358.857-358.857c0-75.429 24-149.143 68.571-210.286l-45.143-133.143 138.286 44c58.286-38.286 127.429-59.429 197.143-59.429zM446.857 808c237.714 0 430.857-193.143 430.857-430.857s-193.143-430.857-430.857-430.857c-72.571 0-144.571 18.286-208.571 53.714l-238.286-76.571 77.714 231.429c-40.571 66.857-61.714 144-61.714 222.286 0 237.714 193.143 430.857 430.857 430.857z" />
<glyph unicode="" glyph-name="whatsapp" data-tags="whatsapp" horiz-adv-x="878" d="M562.857 321.143c9.714 0 102.857-48.571 106.857-55.429 1.143-2.857 1.143-6.286 1.143-8.571 0-14.286-4.571-30.286-9.714-43.429-13.143-32-66.286-52.571-98.857-52.571-27.429 0-84 24-108.571 35.429-81.714 37.143-132.571 100.571-181.714 173.143-21.714 32-41.143 71.429-40.571 110.857v4.571c1.143 37.714 14.857 64.571 42.286 90.286 8.571 8 17.714 12.571 29.714 12.571 6.857 0 13.714-1.714 21.143-1.714 15.429 0 18.286-4.571 24-19.429 4-9.714 33.143-87.429 33.143-93.143 0-21.714-39.429-46.286-39.429-59.429 0-2.857 1.143-5.714 2.857-8.571 12.571-26.857 36.571-57.714 58.286-78.286 26.286-25.143 54.286-41.714 86.286-57.714 4-2.286 8-4 12.571-4 17.143 0 45.714 55.429 60.571 55.429zM446.857 18.285c197.714 0 358.857 161.143 358.857 358.857s-161.143 358.857-358.857 358.857-358.857-161.143-358.857-358.857c0-75.429 24-149.143 68.571-210.286l-45.143-133.143 138.286 44c58.286-38.286 127.429-59.429 197.143-59.429zM446.857 808c237.714 0 430.857-193.143 430.857-430.857s-193.143-430.857-430.857-430.857c-72.571 0-144.571 18.286-208.571 53.714l-238.286-76.571 77.714 231.429c-40.571 66.857-61.714 144-61.714 222.286 0 237.714 193.143 430.857 430.857 430.857z" />
<glyph unicode="whatsapp" glyph-name="whatsapp" data-tags="whatsapp" horiz-adv-x="878" d="M562.857 321.143c9.714 0 102.857-48.571 106.857-55.429 1.143-2.857 1.143-6.286 1.143-8.571 0-14.286-4.571-30.286-9.714-43.429-13.143-32-66.286-52.571-98.857-52.571-27.429 0-84 24-108.571 35.429-81.714 37.143-132.571 100.571-181.714 173.143-21.714 32-41.143 71.429-40.571 110.857v4.571c1.143 37.714 14.857 64.571 42.286 90.286 8.571 8 17.714 12.571 29.714 12.571 6.857 0 13.714-1.714 21.143-1.714 15.429 0 18.286-4.571 24-19.429 4-9.714 33.143-87.429 33.143-93.143 0-21.714-39.429-46.286-39.429-59.429 0-2.857 1.143-5.714 2.857-8.571 12.571-26.857 36.571-57.714 58.286-78.286 26.286-25.143 54.286-41.714 86.286-57.714 4-2.286 8-4 12.571-4 17.143 0 45.714 55.429 60.571 55.429zM446.857 18.285c197.714 0 358.857 161.143 358.857 358.857s-161.143 358.857-358.857 358.857-358.857-161.143-358.857-358.857c0-75.429 24-149.143 68.571-210.286l-45.143-133.143 138.286 44c58.286-38.286 127.429-59.429 197.143-59.429zM446.857 808c237.714 0 430.857-193.143 430.857-430.857s-193.143-430.857-430.857-430.857c-72.571 0-144.571 18.286-208.571 53.714l-238.286-76.571 77.714 231.429c-40.571 66.857-61.714 144-61.714 222.286 0 237.714 193.143 430.857 430.857 430.857z" />
<glyph unicode="vk-brand" glyph-name="vk-brand" data-tags="vk-brand" horiz-adv-x="1119" d="M1095.429 580.571c8.571-23.429-18.286-78.286-85.714-168-110.857-147.429-122.857-133.714-31.429-218.857 88-81.714 106.286-121.143 109.143-126.286 0 0 36.571-64-40.571-64.571l-146.286-2.286c-31.429-6.286-73.143 22.286-73.143 22.286-54.857 37.714-106.286 135.429-146.286 122.857 0 0-41.143-13.143-40-101.143 0.571-18.857-8.571-29.143-8.571-29.143s-10.286-10.857-30.286-12.571h-65.714c-144.571-9.143-272 124-272 124s-139.429 144-261.714 431.429c-8 18.857 0.571 28 0.571 28s8.571 10.857 32.571 10.857l156.571 1.143c14.857-2.286 25.143-10.286 25.143-10.286s9.143-6.286 13.714-18.286c25.714-64 58.857-122.286 58.857-122.286 57.143-117.714 96-137.714 118.286-125.714 0 0 29.143 17.714 22.857 160-2.286 51.429-16.571 74.857-16.571 74.857-13.143 17.714-37.714 22.857-48.571 24.571-8.571 1.143 5.714 21.714 24.571 30.857 28 13.714 77.714 14.286 136.571 13.714 46.286-0.571 59.429-3.429 77.143-7.429 54.286-13.143 36-63.429 36-184.571 0-38.857-7.429-93.143 20.571-110.857 12-8 41.714-1.143 114.857 123.429 0 0 34.286 59.429 61.143 128.571 4.571 12.571 14.286 17.714 14.286 17.714s9.143 5.143 21.714 3.429l164.571 1.143c49.714 6.286 57.714-16.571 57.714-16.571z" />
<glyph unicode="user-check" glyph-name="user-check" data-tags="user-check" d="M960 288l-288-288-96 96-64-64 160-160 352 352zM448 128h320v115.128c-67.22 39.2-156.308 66.11-256 74.26v52.78c70.498 39.728 128 138.772 128 237.832 0 159.058 0 288-192 288s-192-128.942-192-288c0-99.060 57.502-198.104 128-237.832v-52.78c-217.102-17.748-384-124.42-384-253.388h448v64z" />
<glyph unicode="trash" glyph-name="trash" data-tags="trash" horiz-adv-x="861" d="M430.308 592.484c126.422 0 252.844 0 379.266 0 14.688 0 14.566 0 12.563-14.566-7.222-51.528-14.323-103.055-21.546-154.583-7.344-52.256-14.93-104.512-22.274-156.768-7.708-54.744-15.294-109.55-22.942-164.355-10.196-72.77-20.393-145.601-30.589-218.371-0.303-2.003-0.789-3.945-1.092-5.948-2.488-14.991-6.555-18.572-21.424-18.511-49.282 0-98.625 0.182-147.907 0.182-126.422 0-252.783 0-379.205 0-6.312 0-12.624-0.425-18.936-0.243-11.289 0.303-16.569 4.916-18.268 16.205-4.552 31.257-8.922 62.513-13.352 93.77-9.589 67.55-19.179 135.040-28.647 202.591-9.832 70.039-19.422 140.138-29.254 210.177-9.468 67.55-18.997 135.101-28.768 202.591-1.092 7.465 2.246 7.769 7.89 7.769 128.182-0.061 256.364-0.061 384.546-0.061v0zM198.464 442.513c3.945-44.063 7.344-80.539 10.439-117.015 3.763-44.791 7.101-89.642 10.985-134.433 4.795-55.109 9.954-110.217 15.173-165.265 0.971-10.257 1.396-21 4.855-30.468 5.098-14.202 21.971-21.303 36.355-17.54 15.962 4.127 25.369 16.933 24.095 33.806-2.246 29.739-4.916 59.418-7.465 89.096-4.431 51.346-8.8 102.691-13.292 154.037-4.309 49.586-8.618 99.171-13.17 148.696-1.457 15.841-2.731 31.742-5.766 47.34-3.884 19.968-25.855 29.618-43.82 20.271-14.748-7.647-19.907-20.028-18.39-28.525zM662.031 434.32c-0.546 6.615-0.182 12.381-1.639 17.601-4.188 15.052-18.511 24.095-34.291 22.517-12.806-1.275-26.098-14.87-27.312-28.586-5.644-62.149-11.167-124.298-16.569-186.447-3.338-37.993-6.373-76.047-9.65-114.041-3.884-45.034-8.133-90.067-11.714-135.162-1.699-20.939 17.479-37.022 38.115-32.895 15.416 3.095 24.52 15.537 26.158 34.534 3.763 44.548 7.769 89.096 11.653 133.644 4.248 49.1 8.497 98.139 12.745 147.239 1.699 19.361 3.217 38.782 4.916 58.143 2.488 28.161 5.098 56.322 7.587 83.452zM398.505 225.417c0-72.345-0.121-144.63 0.061-216.914 0-18.572 14.688-32.592 32.835-32.531 17.904 0.121 31.074 14.081 31.074 33.077 0 144.144 0 288.228 0 432.372 0 19.604-14.020 33.684-33.199 33.563-17.601-0.121-30.771-14.384-30.771-33.381 0-72.042 0-144.144 0-216.186zM623.674 771.83c11.228 0 22.031 0 32.835 0 45.762 0 91.524 0.182 137.286 0.061 38.297-0.061 65.001-25.612 66.397-63.909 0.789-21.485 0.546-42.97 1.032-64.455 0.121-4.613-1.821-6.555-6.13-6.615-7.344-0.061-14.688-0.121-21.971-0.121-213.394 0-426.788 0-640.182 0.061-61.178 0-122.356 0-183.533-0.243-6.858 0-9.286 1.639-9.165 8.74 0.303 19.482-0.486 38.964-0.121 58.386 0.668 34.595 21.728 61.663 53.652 66.761 15.841 2.549 32.288 1.457 48.432 1.517 42.727 0.243 85.455 0.364 128.182 0.364 6.069 0 8.558 1.76 8.193 8.315-1.942 35.505 13.049 63.484 40.542 84.484 15.416 11.835 33.927 18.026 53.713 18.026 46.005 0 92.009-0.425 138.014-0.607 19.239-0.061 38.418-0.364 57.658 0.182 47.158 1.457 91.827-41.271 93.527-86.729 0.303-7.769 1.032-15.477 1.699-24.277zM302.854 771.83c8.8 0 17.54 0 26.34 0 64.941 0 129.881-0.061 194.822-0.121 9.347 0 18.693-0.182 28.040 0.303 2.185 0.121 5.826 2.549 6.069 4.309 3.824 24.58-10.378 42.060-34.959 42.242-63.181 0.364-126.361 0.243-189.542 0.121-16.751 0-29.618-12.745-30.771-29.496-0.364-4.977 0-10.014 0-17.419z" />
<glyph unicode="telegram-fly" glyph-name="telegram-fly" data-tags="telegram-fly" d="M881.707 719.122l-756.48-291.712c-51.627-20.736-51.328-49.536-9.472-62.379l194.219-60.587 449.365 283.52c21.248 12.928 40.661 5.973 24.704-8.192l-364.075-328.619-13.397-200.192c19.627 0 28.288 9.003 39.296 19.627l94.336 91.733 196.224-144.939c36.181-19.925 62.165-9.685 71.168 33.493l128.811 607.061c13.184 52.864-20.181 76.8-54.699 61.184z" />
<glyph unicode="star-o" glyph-name="star-o" data-tags="star-o" horiz-adv-x="951" d="M649.714 304l174.857 169.714-241.143 35.429-108 218.286-108-218.286-241.143-35.429 174.857-169.714-41.714-240.571 216 113.714 215.429-113.714zM950.857 508c0-10.286-7.429-20-14.857-27.429l-207.429-202.286 49.143-285.714c0.571-4 0.571-7.429 0.571-11.429 0-15.429-6.857-28.571-23.429-28.571-8 0-16 2.857-22.857 6.857l-256.571 134.857-256.571-134.857c-7.429-4-14.857-6.857-22.857-6.857-16.571 0-24 13.714-24 28.571 0 4 0.571 7.429 1.143 11.429l49.143 285.714-208 202.286c-6.857 7.429-14.286 17.143-14.286 27.429 0 17.143 17.714 24 32 26.286l286.857 41.714 128.571 260c5.143 10.857 14.857 23.429 28 23.429s22.857-12.571 28-23.429l128.571-260 286.857-41.714c13.714-2.286 32-9.143 32-26.286z" />
<glyph unicode="star" glyph-name="star" data-tags="star" horiz-adv-x="951" d="M950.857 508c0-10.286-7.429-20-14.857-27.429l-207.429-202.286 49.143-285.714c0.571-4 0.571-7.429 0.571-11.429 0-14.857-6.857-28.571-23.429-28.571-8 0-16 2.857-22.857 6.857l-256.571 134.857-256.571-134.857c-7.429-4-14.857-6.857-22.857-6.857-16.571 0-24 13.714-24 28.571 0 4 0.571 7.429 1.143 11.429l49.143 285.714-208 202.286c-6.857 7.429-14.286 17.143-14.286 27.429 0 17.143 17.714 24 32 26.286l286.857 41.714 128.571 260c5.143 10.857 14.857 23.429 28 23.429s22.857-12.571 28-23.429l128.571-260 286.857-41.714c13.714-2.286 32-9.143 32-26.286z" />
<glyph unicode="rub" glyph-name="rub" data-tags="ruble" horiz-adv-x="731" d="M596 554.857c0 76.571-54.286 128-134.857 128h-182.857v-256h182.857c80.571 0 134.857 51.429 134.857 128zM731.429 554.857c0-146.857-106.286-249.714-258.857-249.714h-194.286v-67.429h288.571c10.286 0 18.286-8 18.286-18.286v-73.143c0-10.286-8-18.286-18.286-18.286h-288.571v-109.714c0-10.286-8-18.286-18.286-18.286h-95.429c-10.286 0-18.286 8-18.286 18.286v109.714h-128c-10.286 0-18.286 8-18.286 18.286v73.143c0 10.286 8 18.286 18.286 18.286h128v67.429h-128c-10.286 0-18.286 8-18.286 18.286v85.143c0 10.286 8 18.286 18.286 18.286h128v359.429c0 10.286 8 18.286 18.286 18.286h308c152.571 0 258.857-102.857 258.857-249.714z" />
<glyph unicode="rouble" glyph-name="rub" data-tags="ruble" horiz-adv-x="731" d="M596 554.857c0 76.571-54.286 128-134.857 128h-182.857v-256h182.857c80.571 0 134.857 51.429 134.857 128zM731.429 554.857c0-146.857-106.286-249.714-258.857-249.714h-194.286v-67.429h288.571c10.286 0 18.286-8 18.286-18.286v-73.143c0-10.286-8-18.286-18.286-18.286h-288.571v-109.714c0-10.286-8-18.286-18.286-18.286h-95.429c-10.286 0-18.286 8-18.286 18.286v109.714h-128c-10.286 0-18.286 8-18.286 18.286v73.143c0 10.286 8 18.286 18.286 18.286h128v67.429h-128c-10.286 0-18.286 8-18.286 18.286v85.143c0 10.286 8 18.286 18.286 18.286h128v359.429c0 10.286 8 18.286 18.286 18.286h308c152.571 0 258.857-102.857 258.857-249.714z" />
<glyph unicode="heart-like" glyph-name="heart-like" data-tags="heart, like, love, favorite" d="M755.188 832c-107.63 0-200.258-87.554-243.164-179-42.938 91.444-135.578 179-243.216 179-148.382 0-268.808-120.44-268.808-268.832 0-301.846 304.5-380.994 512.022-679.418 196.154 296.576 511.978 387.206 511.978 679.418 0 148.392-120.43 268.832-268.812 268.832z" />
<glyph unicode="cross-middle" glyph-name="cross-middle" data-tags="cross" d="M734.618 135.731c-24.013-24.013-62.925-24.013-86.886 0l-135.731 155.136-135.731-155.085c-24.013-24.013-62.925-24.013-86.886 0-24.013 24.013-24.013 62.925 0 86.886l141.21 161.28-141.261 161.382c-24.013 24.013-24.013 62.874 0 86.886s62.874 24.013 86.886 0l135.782-155.187 135.731 155.187c24.013 24.013 62.874 24.013 86.886 0s24.013-62.925 0-86.886l-141.21-161.382 141.21-161.28c24.013-24.013 24.013-62.925 0-86.938z" />
<glyph unicode="cancel-circle" glyph-name="cancel-circle" data-tags="cancel-circle, close, remove, delete" d="M512 896c-282.77 0-512-229.23-512-512s229.23-512 512-512 512 229.23 512 512-229.23 512-512 512zM512-32c-229.75 0-416 186.25-416 416s186.25 416 416 416 416-186.25 416-416-186.25-416-416-416zM672 640l-160-160-160 160-96-96 160-160-160-160 96-96 160 160 160-160 96 96-160 160 160 160z" />
<glyph unicode="cancel" glyph-name="cancel" data-tags="cross, cancel, close, quit, remove" d="M1014.662 73.34c-0.004 0.004-0.008 0.008-0.012 0.010l-310.644 310.65 310.644 310.65c0.004 0.004 0.008 0.006 0.012 0.010 3.344 3.346 5.762 7.254 7.312 11.416 4.246 11.376 1.824 24.682-7.324 33.83l-146.746 146.746c-9.148 9.146-22.45 11.566-33.828 7.32-4.16-1.55-8.070-3.968-11.418-7.31 0-0.004-0.004-0.006-0.008-0.010l-310.648-310.652-310.648 310.65c-0.004 0.004-0.006 0.006-0.010 0.010-3.346 3.342-7.254 5.76-11.414 7.31-11.38 4.248-24.682 1.826-33.83-7.32l-146.748-146.748c-9.148-9.148-11.568-22.452-7.322-33.828 1.552-4.16 3.97-8.072 7.312-11.416 0.004-0.002 0.006-0.006 0.010-0.010l310.65-310.648-310.65-310.652c-0.002-0.004-0.006-0.006-0.008-0.010-3.342-3.346-5.76-7.254-7.314-11.414-4.248-11.376-1.826-24.682 7.322-33.83l146.748-146.746c9.15-9.148 22.452-11.568 33.83-7.322 4.16 1.552 8.070 3.97 11.416 7.312 0.002 0.004 0.006 0.006 0.010 0.010l310.648 310.65 310.648-310.65c0.004-0.002 0.008-0.006 0.012-0.008 3.348-3.344 7.254-5.762 11.414-7.314 11.378-4.246 24.684-1.826 33.828 7.322l146.746 146.748c9.148 9.148 11.57 22.454 7.324 33.83-1.552 4.16-3.97 8.068-7.314 11.414z" />
</font>
</defs>
</svg>
